<?xml version="1.0" encoding="UTF-8" standalone="no"?>
<!DOCTYPE svg PUBLIC "-//W3C//DTD SVG 1.1//EN" "http://www.w3.org/Graphics/SVG/1.1/DTD/svg11.dtd">
<svg width="100%" height="100%" viewBox="0 0 12600 12600" version="1.1" xmlns="http://www.w3.org/2000/svg" xmlns:xlink="http://www.w3.org/1999/xlink" xml:space="preserve" xmlns:serif="http://www.serif.com/" style="fill-rule:evenodd;clip-rule:evenodd;stroke-linecap:round;stroke-linejoin:round;stroke-miterlimit:1.5;">
    <g transform="matrix(1.00631,-0.0510711,0.0510711,1.00631,92.4962,881.169)">
        <g transform="matrix(2.03753,-2.72572,0.585377,0.466215,-2599.8,11131.3)">
            <path d="M2038.05,3019.29L2032.18,8145.92C1997.95,8176.41 1882.12,8279.57 1840.65,8316.5L1836.08,7160.45C1836.08,7160.45 1828.12,5145.03 1823.81,4053.83C1822.27,3664.18 1872.84,3316.45 1951.66,3174.67L2038.05,3019.29ZM2050.58,2953.56L2040.48,2966.77L2041.41,2951.74L2050.6,2935.22L2050.58,2953.56Z" style="fill:url(#_Linear1);"/>
        </g>
        <g>
            <g transform="matrix(0.046249,-0.986209,0.933276,0.0470571,-515.424,10963.4)">
                <g transform="matrix(-0.896803,-0.613482,0.664027,-0.970691,9947.72,16005.2)">
                    <path d="M4076.76,5567.18L6292.83,3882.94L7615.96,6932.64C7615.96,6932.64 6854.53,6778.12 6472.38,6700.56C6330.55,6671.78 6192.57,6625.06 6062.28,6561.72C5540.78,6308.01 4156.65,5632.17 4076.76,5567.18Z" style="fill:url(#_Linear2);"/>
                </g>
                <g transform="matrix(-0.896803,-0.613482,0.664027,-0.970691,9947.72,16005.2)">
                    <path d="M6292.87,3882.89L7615.96,6932.64L9719.32,4731.24L6292.87,3882.89Z" style="fill:url(#_Linear3);"/>
                </g>
                <g transform="matrix(-0.896803,-0.613482,0.664027,-0.970691,9947.72,16005.2)">
                    <path d="M4076.76,5567.18L9719.32,4731.24L6292.83,3882.94L4076.76,5567.18Z" style="fill:url(#_Linear4);"/>
                </g>
                <g transform="matrix(-0.896803,-0.613482,0.664027,-0.970691,9947.72,16005.2)">
                    <path d="M4391.31,3927.24L5090.85,2950.83L6292.83,3882.94L4391.31,3927.24Z" style="fill:rgb(215,110,85);"/>
                </g>
                <g transform="matrix(-0.896803,-0.613482,0.664027,-0.970691,9947.72,16005.2)">
                    <path d="M4076.76,5567.18L6292.83,3882.94L4391.31,3927.24L4076.76,5567.18Z" style="fill:url(#_Linear5);"/>
                </g>
                <g transform="matrix(0.0441785,-1.00926,1.00926,0.0441785,-3295.83,12591.2)">
                    <path d="M10101.3,10406.2L9080.41,7720.39L7816.49,5774.61L7636.54,6419.46L10101.3,10406.2Z" style="fill:url(#_Linear6);"/>
                </g>
                <g transform="matrix(0.833799,0.570382,-0.570382,0.833799,5730.43,-1622.02)">
                    <path d="M4065.17,2589.11L1989.67,6781.85L2843.57,6536.51L5809.58,3170.2L4065.17,2589.11Z" style="fill:url(#_Linear7);"/>
                </g>
                <g transform="matrix(6.12323e-17,-1,1,6.12323e-17,-132.526,12836.5)">
                    <path d="M7491.42,2812.19L7878.77,3007.14L7668.9,3653.69L7491.42,2812.19Z" style="fill:rgb(1,0,255);fill-opacity:0.13;"/>
                </g>
                <g transform="matrix(0.833799,0.570382,-0.570382,0.833799,5738.29,-1724.65)">
                    <path d="M1392.54,7058.53L1703.99,9324.08C1710.51,9371.49 1726.16,9417.6 1750.05,9459.75C1797.8,9544.01 1875.86,9681.76 1875.86,9681.76L2894.5,6624.75" style="fill:url(#_Linear8);"/>
                </g>
                <g transform="matrix(0.76675,-0.657762,0.657762,0.76675,-1731.47,6350.62)">
                    <path d="M5166.6,7073.23L4496.94,4894.02L4217.01,3623.11L5166.83,3257.85L5166.6,7073.23Z" style="fill:rgb(254,215,96);"/>
                </g>
                <g transform="matrix(-0.833799,-0.570382,0.570382,-0.833799,9884.61,15670.4)">
                    <path d="M4958.77,2962.54C4958.77,2962.54 8991.82,2173.92 9658.22,2043.61C9719.65,2031.6 9783.07,2029.54 9846.16,2037.5C10173.7,2078.85 11233.6,2212.68 11233.6,2212.68L10215,5269.69C10215,5269.69 9673.15,4994.39 9318.24,4814.07C9118.66,4712.67 8905.89,4644.06 8688.25,4610.91C8012.42,4507.97 6529.6,4282.12 6529.6,4282.12L4958.77,2962.54Z" style="fill:url(#_Radial9);"/>
                </g>
                <g transform="matrix(0.76675,-0.657762,0.657762,0.76675,-1731.47,6350.62)">
                    <path d="M3582.04,3536.34L1950.34,3065.13L5166.83,3257.85L4217.01,3623.11L3582.04,3536.34Z" style="fill:url(#_Linear10);"/>
                </g>
                <g transform="matrix(0.92637,-0.376614,0.376614,0.92637,-1169.24,2921.54)">
                    <path d="M5169.26,10146L6119.5,8308.58L7602.36,4906.39L8190.52,3257.68L5892.2,4670.8L5404.94,8084.9L5169.26,10146Z" style="fill:url(#_Linear11);"/>
                </g>
                <g transform="matrix(0.92637,-0.376614,0.376614,0.92637,-1169.24,2921.54)">
                    <path d="M5169.26,10146L6119.5,8308.58L7602.36,4906.39L8190.52,3257.68L5892.2,4670.8L5404.94,8084.9L5169.26,10146Z" style="fill:url(#_Linear12);"/>
                </g>
            </g>
            <g transform="matrix(-0.516608,-0.592671,0.630172,-0.52394,12227.9,10372.3)">
                <g>
                    <g transform="matrix(2.53271,-1.02967,0.23962,0.589402,-15437.8,10714.9)">
                        <path d="M9331.42,3300.11L9267,3698.42L9269.55,4852.61L9331.51,4454.04L9331.42,3300.11Z" style="fill:rgb(254,255,156);fill-opacity:0.62;"/>
                    </g>
                    <g transform="matrix(2.57907,-0.915635,0.23962,0.589402,-15815,9598.53)">
                        <path d="M9337.18,3300.11L9269.05,3695.87L9269.55,4852.61L9336.67,4462.47L9337.18,3300.11Z" style="fill:rgb(255,143,0);fill-opacity:0.51;"/>
                    </g>
                    <g transform="matrix(2.37043,-0.963691,0.23962,0.589402,-13841.1,10026.2)">
                        <path d="M9350.9,3300.11L9269.55,3727.45L9274.65,4857.46L9351.58,4462.47L9350.9,3300.11Z" style="fill:rgb(255,15,0);fill-opacity:0.24;"/>
                    </g>
                </g>
            </g>
            <g transform="matrix(-3.0968,1.25108,-2.41214,-0.344513,22394,-1665.64)">
                <path d="M3998.22,2565.48L4662.08,2261.08" style="fill:none;stroke:url(#_Linear13);stroke-width:0.96px;"/>
            </g>
        </g>
        <g transform="matrix(-4.36466,-1.60242,0.550638,-1.36864,13268,17372.5)">
            <path d="M2039.97,3004.01L1945.79,7398.93C1945.79,7398.93 1749,7964.39 1688.18,8139.13C1704.4,7618.91 1799.19,4579.54 1824.24,3776.39C1827.93,3658.08 1845.36,3549.53 1873.21,3471.46L2039.97,3004.01Z" style="fill:url(#_Linear14);"/>
        </g>
    </g>
    <g transform="matrix(-0.520388,1.28701,-1.30893,-0.486353,17186,-696.538)">
        <circle cx="8369.4" cy="4849.1" r="2629.31" style="fill:url(#_Linear15);"/>
    </g>
    <defs>
        <linearGradient id="_Linear1" x1="0" y1="0" x2="1" y2="0" gradientUnits="userSpaceOnUse" gradientTransform="matrix(-23.0379,-5020.76,1103.88,49.1322,1943.16,8262.97)"><stop offset="0" style="stop-color:white;stop-opacity:0.26"/><stop offset="1" style="stop-color:white;stop-opacity:0"/></linearGradient>
        <linearGradient id="_Linear2" x1="0" y1="0" x2="1" y2="0.0466557" gradientUnits="userSpaceOnUse" gradientTransform="matrix(2374.74,621.67,-673.17,2240.1,4577.13,5858.95)"><stop offset="0" style="stop-color:rgb(207,198,255);stop-opacity:0.85"/><stop offset="1" style="stop-color:rgb(207,198,255);stop-opacity:0"/></linearGradient>
        <linearGradient id="_Linear3" x1="0" y1="0" x2="1" y2="-0.0363571" gradientUnits="userSpaceOnUse" gradientTransform="matrix(1158.89,2267.85,-2414.6,1103.82,6542.15,4167.96)"><stop offset="0" style="stop-color:rgb(7,188,255);stop-opacity:0.75"/><stop offset="0.44" style="stop-color:rgb(7,188,255);stop-opacity:0.526471"/><stop offset="1" style="stop-color:rgb(7,188,255);stop-opacity:0"/></linearGradient>
        <linearGradient id="_Linear4" x1="0" y1="0" x2="1" y2="-0.00523776" gradientUnits="userSpaceOnUse" gradientTransform="matrix(-3661.42,2718.17,-2942.13,-3382.72,8206.96,4513.07)"><stop offset="0" style="stop-color:rgb(160,160,160);stop-opacity:1"/><stop offset="0.37" style="stop-color:white;stop-opacity:1"/><stop offset="1" style="stop-color:rgb(146,232,254);stop-opacity:1"/></linearGradient>
        <linearGradient id="_Linear5" x1="0" y1="0" x2="1" y2="-0.0542645" gradientUnits="userSpaceOnUse" gradientTransform="matrix(-575.886,1925.92,-2084.59,-532.05,4704.46,3672.95)"><stop offset="0" style="stop-color:rgb(207,113,90);stop-opacity:1"/><stop offset="1" style="stop-color:rgb(255,186,105);stop-opacity:1"/></linearGradient>
        <linearGradient id="_Linear6" x1="0" y1="0" x2="1" y2="-0.0488304" gradientUnits="userSpaceOnUse" gradientTransform="matrix(-2493.85,-3680.67,3680.67,-2493.85,10130.7,9501.16)"><stop offset="0" style="stop-color:rgb(52,0,60);stop-opacity:0.18"/><stop offset="1" style="stop-color:rgb(52,0,60);stop-opacity:0.178588"/></linearGradient>
        <linearGradient id="_Linear7" x1="0" y1="0" x2="1" y2="-0.0333274" gradientUnits="userSpaceOnUse" gradientTransform="matrix(-2287.31,3897.41,-3845.74,-2298.74,4517.75,3058.53)"><stop offset="0" style="stop-color:rgb(138,241,255);stop-opacity:0.5"/><stop offset="0.56" style="stop-color:rgb(138,241,255);stop-opacity:0.4"/><stop offset="1" style="stop-color:rgb(138,241,255);stop-opacity:0"/></linearGradient>
        <linearGradient id="_Linear8" x1="0" y1="0" x2="1" y2="-0.0551244" gradientUnits="userSpaceOnUse" gradientTransform="matrix(-478.791,2778.59,-2778.59,-478.791,2239.12,6734.29)"><stop offset="0" style="stop-color:rgb(255,232,226);stop-opacity:0.96"/><stop offset="1" style="stop-color:rgb(255,232,226);stop-opacity:0.489412"/></linearGradient>
        <radialGradient id="_Radial9" cx="0" cy="0" r="1" gradientUnits="userSpaceOnUse" gradientTransform="matrix(-4593.99,2009.42,-2009.42,-4593.99,11087.6,2312.61)"><stop offset="0" style="stop-color:rgb(255,235,142);stop-opacity:1"/><stop offset="0.56" style="stop-color:rgb(255,215,159);stop-opacity:0.49"/><stop offset="1" style="stop-color:rgb(255,141,87);stop-opacity:1"/></radialGradient>
        <linearGradient id="_Linear10" x1="0" y1="0" x2="1" y2="-0.0546781" gradientUnits="userSpaceOnUse" gradientTransform="matrix(-2537.77,42.0048,-42.0048,-2537.77,4669.59,3091.9)"><stop offset="0" style="stop-color:rgb(255,154,0);stop-opacity:0.42"/><stop offset="1" style="stop-color:rgb(153,92,0);stop-opacity:1"/></linearGradient>
        <linearGradient id="_Linear11" x1="0" y1="0" x2="1" y2="0.00156398" gradientUnits="userSpaceOnUse" gradientTransform="matrix(2266.74,-5570.61,5558.67,2297.59,5268.39,9210.16)"><stop offset="0" style="stop-color:rgb(255,175,183);stop-opacity:0.57"/><stop offset="1" style="stop-color:rgb(0,131,255);stop-opacity:0.57"/></linearGradient>
        <linearGradient id="_Linear12" x1="0" y1="0" x2="1" y2="0.00156398" gradientUnits="userSpaceOnUse" gradientTransform="matrix(2239.88,-4717.45,4694.64,2298.82,5295.26,8357.01)"><stop offset="0" style="stop-color:rgb(255,175,183);stop-opacity:0.88"/><stop offset="0.8" style="stop-color:rgb(148,187,241);stop-opacity:0.01"/><stop offset="1" style="stop-color:rgb(122,190,255);stop-opacity:0.41"/></linearGradient>
        <linearGradient id="_Linear13" x1="0" y1="0" x2="1" y2="0" gradientUnits="userSpaceOnUse" gradientTransform="matrix(663.868,-304.401,-701.564,1288.5,3998.22,2565.48)"><stop offset="0" style="stop-color:rgb(127,226,255);stop-opacity:1"/><stop offset="1" style="stop-color:rgb(127,226,255);stop-opacity:0"/></linearGradient>
        <linearGradient id="_Linear14" x1="0" y1="0" x2="1" y2="-0.00123922" gradientUnits="userSpaceOnUse" gradientTransform="matrix(-42.8817,4527.29,-1458.87,-272.135,1936.92,3332.31)"><stop offset="0" style="stop-color:white;stop-opacity:0.6"/><stop offset="1" style="stop-color:white;stop-opacity:0"/></linearGradient>
        <linearGradient id="_Linear15" x1="0" y1="0" x2="1" y2="0.0319447" gradientUnits="userSpaceOnUse" gradientTransform="matrix(-4347.88,2134.68,-2003.6,-4632.31,10442.7,4147.16)"><stop offset="0" style="stop-color:rgb(89,180,255);stop-opacity:0.34"/><stop offset="1" style="stop-color:rgb(89,180,255);stop-opacity:0"/></linearGradient>
    </defs>
</svg>
