<?xml version="1.0" encoding="UTF-8" standalone="no"?><!DOCTYPE svg PUBLIC "-//W3C//DTD SVG 1.1//EN" "http://www.w3.org/Graphics/SVG/1.1/DTD/svg11.dtd"><svg width="100%" height="100%" viewBox="0 0 265 613" version="1.1" xmlns="http://www.w3.org/2000/svg" xmlns:xlink="http://www.w3.org/1999/xlink" xml:space="preserve" xmlns:serif="http://www.serif.com/" style="fill-rule:evenodd;clip-rule:evenodd;stroke-linecap:round;stroke-linejoin:bevel;stroke-miterlimit:1.5;"><g><path d="M22.869,11.288c-3.74,-1.532 -8.023,-0.859 -11.113,1.746c-3.091,2.606 -4.478,6.712 -3.601,10.658c5.432,24.187 8.571,46.244 8.311,74.757c-0.001,0.043 -0.001,0.086 -0.001,0.128c0,3.373 0,213.893 0,213.893c-0.62,30.517 3.427,59.026 14.466,81.148c7.947,15.782 21.12,28.321 37.274,35.482c2.238,1.03 4.672,2.109 7.166,3.214c3.903,1.73 8.461,0.978 11.602,-1.914c3.14,-2.892 4.265,-7.372 2.863,-11.405c-4.594,-13.317 -8.516,-28.55 -8.462,-36.713c0,-0.001 0,-0.002 0,-0.003c0.006,-0.748 1.727,-211.461 2.48,-303.585c0.208,-25.536 -15.149,-48.627 -38.779,-58.308c-7.71,-3.159 -15.486,-6.345 -22.206,-9.098Z" style="fill:#fff;stroke:#fff;stroke-width:6.5px;"/><path d="M214.917,255.851c-5.579,-2.313 -11.943,-1.696 -16.972,1.647c-5.03,3.342 -8.064,8.971 -8.092,15.009c-0.036,7.592 -0.065,13.821 -0.065,13.821c0,0 -0.014,49.823 -0.021,72.183c-0.002,6.759 2.92,13.188 8.014,17.631c6.263,5.463 14.827,12.933 20.486,17.869c3.559,3.104 8.687,3.629 12.801,1.311c5.925,-3.34 14.539,-8.194 21.086,-11.884c5.6,-3.156 8.64,-9.468 7.616,-15.814c-3.327,-20.62 -10.668,-66.114 -14.174,-87.845c-1.205,-7.467 -6.192,-13.776 -13.179,-16.673c-5.108,-2.118 -11.37,-4.714 -17.5,-7.255Z" style="fill:#fff;stroke:#fff;stroke-width:6.5px;"/><path d="M107.411,231.38c0.027,-4.76 2.433,-9.19 6.41,-11.805c3.977,-2.614 8.998,-3.066 13.379,-1.204c11.177,4.752 24.779,10.535 34.208,14.544c6.918,2.942 11.407,9.736 11.398,17.254c-0.069,56.865 -0.351,289.919 -0.351,289.919c0.09,43.251 -58.176,65.095 -68.002,68.471c-0.853,0.279 -1.784,-0.103 -2.195,-0.902c-1.693,-6.821 6.462,-29.77 6.632,-44.214c0,-0.008 0,-0.017 0,-0.026c-0.001,-1.097 -0.057,-71.91 -0.082,-103.292c-0.005,-6.523 1.675,-12.937 4.878,-18.62c0.979,-1.584 1.349,-3.941 1.747,-8.229c0.909,-9.779 -4.161,-17.333 -8.068,-34.884c-0.571,-2.574 -0.852,-5.204 -0.837,-7.84c0.093,-19.789 0.637,-115.782 0.883,-159.172Z" style="fill:#fff;stroke:#fff;stroke-width:6.5px;"/></g></svg>